<?xml version="1.0" encoding="utf-8"?>
<!-- Generator: Adobe Illustrator 25.4.1, SVG Export Plug-In . SVG Version: 6.00 Build 0)  -->
<svg version="1.1" xmlns="http://www.w3.org/2000/svg" xmlns:xlink="http://www.w3.org/1999/xlink" x="0px" y="0px"
	 viewBox="0 0 256 256" style="enable-background:new 0 0 256 256;" xml:space="preserve">
<style type="text/css">
	.st0{display:none;}
	.st1{fill:#FFFFFF;stroke:#8E8E8E;stroke-width:5.5732;stroke-miterlimit:14.2183;}
	.st2{fill-opacity:0.9412;}
	.st3{fill:#FFFFFF;}
	.st4{stroke:#000000;stroke-width:7.155187e-02;stroke-miterlimit:15.1451;}
	.st5{fill:#646464;fill-opacity:0.9412;}
</style>
<g id="Layer_2" class="st0">
	
		<image style="display:inline;overflow:visible;" width="290" height="419" xlink:href="6D3CD2C1.jpg"  transform="matrix(0.575 0 0 0.575 40.4928 6.6123)">
	</image>
</g>
<g id="svg8" xmlns:cc="http://creativecommons.org/ns#" xmlns:dc="http://purl.org/dc/elements/1.1/" xmlns:inkscape="http://www.inkscape.org/namespaces/inkscape" xmlns:rdf="http://www.w3.org/1999/02/22-rdf-syntax-ns#" xmlns:sodipodi="http://sodipodi.sourceforge.net/DTD/sodipodi-0.dtd" xmlns:svg="http://www.w3.org/2000/svg">
	
		<sodipodi:namedview  bordercolor="#666666" borderopacity="1.0" fit-margin-bottom="0" fit-margin-left="0" fit-margin-right="0" fit-margin-top="0" id="base" inkscape:current-layer="g1089" inkscape:cx="-861.54004" inkscape:cy="753.71716" inkscape:document-units="mm" inkscape:pageopacity="0.0" inkscape:pageshadow="2" inkscape:window-height="1485" inkscape:window-maximized="0" inkscape:window-width="1963" inkscape:window-x="393" inkscape:window-y="67" inkscape:zoom="0.5" pagecolor="#ffffff" showgrid="false" showguides="true">
		</sodipodi:namedview>
	<g id="g1074" sodipodi:insensitive="true" class="st0">
		
			<image style="display:inline;overflow:visible;enable-background:new    ;" width="232" height="330" id="image823" xlink:href="6D3CD2C3.png"  transform="matrix(1.4035 0 0 1.4035 121.9458 -309.7055)">
		</image>
	</g>
	<path id="rect4588-2" inkscape:connector-curvature="0" sodipodi:nodetypes="csscccccccsscc" class="st1" d="M204.7,70.1
		l-0.9,138.4c-0.1,12.6-10.1,22.7-22.7,22.7h-26.8H141h-6.7l-6.7,7.2l-6.7-7.2h-6.7h-13.4H73.9c-12.6,0-22.7-10.1-22.7-22.7
		l0.1-138.1L204.7,70.1z"/>
	<path id="path5950" inkscape:connector-curvature="0" sodipodi:nodetypes="cccscccccccccccccccc" d="M184.2,55.3
		c-0.7-0.2-9.5-2.2-21.2-4.5c-12.2-2.4-26.8-4.7-35.9-4.7c-8.9,0-22.9,2.4-34.7,4.7c-11.1,2.2-19.1,4.2-20,4.4c0,0.2,0,0.4,0,0.6
		c0.2,0.6,1,1.1,1,1.8c-0.1,0.9-1.4,1.3-1.6,2.2c-0.4,1.4-0.3,3,0.3,4.3c1.2,2.7,6,6.3,6,6.3l18-0.3c0,0,23.2-5.4,31.5-5.4
		c8.8,0,32.9,5.4,32.9,5.4l18,0.3c0,0,4.9-3.6,6-6.3c0.6-1.3,0.7-2.9,0.3-4.3c-0.3-0.9-1.6-1.3-1.6-2.2c0-0.7,0.8-1.1,1-1.8
		C184.2,55.6,184.2,55.5,184.2,55.3L184.2,55.3z"/>
	<path id="path14581" inkscape:connector-curvature="0" sodipodi:nodetypes="cccccsccccccc" d="M128.3,39.2L68.9,47
		c0,0,0.8,2.6,1.8,3.4c0.4,0.4,1.3,0.1,1.6,0.6c0,0,0,0.1,0,0.2c1.6-0.4,8.6-2.1,19.4-4.3c11.8-2.4,26-4.8,35.5-4.8
		c9.8,0,24.4,2.4,36.7,4.8c11.4,2.2,19.2,4.1,20.5,4.4c0-0.1,0-0.2,0-0.3c0.3-0.5,1.2-0.2,1.6-0.6c1-0.8,1.8-3.4,1.8-3.4L128.3,39.2
		z"/>
	<path id="rect4588" inkscape:connector-curvature="0" d="M207.5,67.3l-2.8,0L48.6,67.7l-0.1,140.8c0,14.1,11.4,25.5,25.5,25.5h26.8
		h13.4h5.5l7.9,8.5l7.9-8.5h5.5h13.4h26.8c14.1,0,25.4-11.4,25.5-25.5L207.5,67.3z M201.9,72.9L201,208.5
		c-0.1,11.1-8.8,19.9-19.9,19.9h-26.8h-13.4H133l-5.5,5.9l-5.5-5.9h-7.9h-13.4H73.9c-11.1,0-19.9-8.8-19.9-19.9l0.1-135.3
		L201.9,72.9z"/>
	<path id="path5948" inkscape:connector-curvature="0" sodipodi:nodetypes="ccccccscsccc" class="st2" d="M184.4,51.2
		c-1.3-0.3-9.2-2.2-20.5-4.4c-12.3-2.4-26.9-4.8-36.7-4.8c-9.5,0-23.6,2.4-35.5,4.8c-10.7,2.1-17.8,3.9-19.4,4.3
		c0.7,1.1,0.1,2.7,0.1,4.1c1-0.2,9-2.2,20-4.4c11.7-2.3,25.8-4.7,34.7-4.7c9.1,0,23.7,2.3,35.9,4.7c11.7,2.3,20.4,4.3,21.2,4.5
		C184.3,53.9,183.7,52.4,184.4,51.2L184.4,51.2z"/>
	<path id="path5419" inkscape:connector-curvature="0" class="st3" d="M82.9,59.9c0,1.1-0.9,2.1-2,2.1c-1.1,0-2-0.9-2-2.1
		c0-1.1,0.9-2.1,2-2.1c0,0,0,0,0,0C82,57.8,82.9,58.8,82.9,59.9L82.9,59.9z"/>
	<path id="path5426" inkscape:connector-curvature="0" class="st3" d="M106.6,56.5c0,1.1-0.9,2.1-2,2.1s-2-0.9-2-2.1
		c0-1.1,0.9-2.1,2-2.1c0,0,0,0,0,0C105.6,54.4,106.6,55.4,106.6,56.5L106.6,56.5z"/>
	<path id="path5433" inkscape:connector-curvature="0" class="st3" d="M130.2,53.1c0,1.1-0.9,2.1-2,2.1s-2-0.9-2-2.1
		c0-1.1,0.9-2.1,2-2.1c0,0,0,0,0,0C129.3,51,130.2,52,130.2,53.1L130.2,53.1z"/>
	<path id="path5440" inkscape:connector-curvature="0" class="st3" d="M153.8,56.5c0,1.1-0.9,2.1-2,2.1s-2-0.9-2-2.1
		c0-1.1,0.9-2.1,2-2.1c0,0,0,0,0,0C152.9,54.4,153.8,55.4,153.8,56.5L153.8,56.5z"/>
	<path id="path5447" inkscape:connector-curvature="0" class="st3" d="M177.4,59.9c0,1.1-0.9,2.1-2,2.1s-2-0.9-2-2.1s0.9-2.1,2-2.1
		c0,0,0,0,0,0C176.5,57.8,177.4,58.8,177.4,59.9L177.4,59.9z"/>
	<path id="path5779" inkscape:connector-curvature="0" sodipodi:nodetypes="cssssssssssssccc" class="st3" d="M107.8,61.1
		c0.2-1.4,4.8-3,4.8-5.2c0-2.3-5.2-4.7-5.1-5.3c0-0.3,3.8-2,5.4-1.1c1.3,0.7,0.6,3.3,1.9,4c1,0.6,2.7,0.6,3.5-0.2
		c1.1-1.1-0.1-4.3,0.3-4.5c0.3-0.1,5.2-1.6,6.2,0.3c1.1,2.1-4.1,3.8-3.7,6.2c0.4,2.6,7.4,3.2,5.8,5.3c-1.4,1.8-6,2.1-7.9,1
		c-1.4-0.8,1.1-3.8-0.2-4.7c-1-0.7-2.6,0.2-3.3,1c-1.1,1.2,0.1,4-0.1,4.9C115,63.9,107.4,62.8,107.8,61.1L107.8,61.1z"/>
	<path id="path5779-9" inkscape:connector-curvature="0" sodipodi:nodetypes="cssssssssssssccc" class="st3" d="M84.3,64.1
		c0.2-1.4,4.8-3,4.8-5.2c0-2.3-5.2-4.7-5.1-5.3c0-0.3,3.8-2,5.4-1.1c1.3,0.7,0.6,3.3,1.9,4c1,0.6,2.7,0.6,3.5-0.2
		c1.1-1.1-0.1-4.3,0.3-4.5c0.3-0.1,5.2-1.6,6.2,0.3c1.1,2.1-4.1,3.8-3.7,6.2c0.4,2.6,7.4,3.2,5.8,5.3c-1.4,1.8-6,2.1-7.9,1
		c-1.4-0.8,1.1-3.8-0.2-4.7c-1-0.7-2.6,0.2-3.3,1c-1.1,1.2,0.1,4-0.1,4.9C91.5,67,83.9,65.9,84.3,64.1L84.3,64.1z"/>
	<path id="path5779-1" inkscape:connector-curvature="0" sodipodi:nodetypes="cssssssssssssccc" class="st3" d="M149.5,61
		c-0.2-1.4-4.8-3-4.8-5.2c0-2.3,5.2-4.7,5.1-5.3c0-0.3-3.8-2-5.4-1.1c-1.3,0.7-0.6,3.3-1.9,4c-1,0.6-2.7,0.6-3.5-0.2
		c-1.1-1.1,0.1-4.3-0.3-4.5c-0.3-0.1-5.2-1.6-6.2,0.3c-1.1,2.1,4.1,3.8,3.7,6.2c-0.4,2.6-7.4,3.2-5.8,5.3c1.4,1.8,6,2.1,7.9,1
		c1.4-0.8-1.1-3.8,0.2-4.7c1-0.7,2.6,0.2,3.3,1c1.1,1.2-0.1,4,0.1,4.9C142.3,63.8,149.8,62.7,149.5,61L149.5,61z"/>
	<path id="path5779-9-9" inkscape:connector-curvature="0" sodipodi:nodetypes="cssssssssssssccc" class="st3" d="M173,64.1
		c-0.2-1.4-4.8-3-4.8-5.2c0-2.3,5.2-4.7,5.1-5.3c0-0.3-3.8-2-5.4-1.1c-1.3,0.7-0.6,3.3-1.9,4c-1,0.6-2.7,0.6-3.5-0.2
		c-1.1-1.1,0.1-4.3-0.3-4.5c-0.3-0.1-5.2-1.6-6.2,0.3c-1.1,2.1,4.1,3.8,3.7,6.2c-0.4,2.6-7.4,3.2-5.8,5.3c1.4,1.8,6,2.1,7.9,1
		c1.4-0.8-1.1-3.8,0.2-4.7c1-0.7,2.6,0.2,3.3,1c1.1,1.2-0.1,4,0.1,4.9C165.8,66.9,173.4,65.8,173,64.1L173,64.1z"/>
	<path id="path4591-2" inkscape:connector-curvature="0" d="M70.6,125c-9.1,9-8.2,22.1-5.4,34.6c1.7,7.5,7.9,14.2,13.2,20.9
		c2.6,3.3,5,6.6,6.4,10c0.4,0.8,0.6,1.7,0.9,2.6c0.1,0.4,0.2,0.9,0.3,1.3c0.1,0.4,0.1,0.9,0.2,1.3c0.1,0.9,0.1,1.8,0,2.6
		c-0.1,0.9-0.3,1.8-0.6,2.7c-1,2.9-8.2,0.6-9.2,3.5c-1.3,4.1,1.8,10.2,5.9,11.4c2.5,0.7,5.6-1.8,6.7-4.1
		c8.8-17.6-15.6-49.1-15.5-63.5c0.1-11.5,14.8-12.2,21.9-18.7c2.1-1.9,6.1-6,6.1-6l0,0c0,0,4-4,6-6.1c6.5-7.1,7.1-21.8,18.7-21.9
		c14.3-0.1,45.8,24.4,63.5,15.5c2.4-1.2,4.8-4.2,4.1-6.7c-1.1-4.1-7.3-7.2-11.4-5.9c-2.9,0.9-0.6,8.2-3.5,9.2
		c-0.9,0.3-2.2,0.4-3.1,0.5c-0.9,0.1-1.3,0.2-2.2,0.2c-0.4,0-1.1-0.2-1.5-0.3c-0.4-0.1-0.7-0.1-1.1-0.2c-0.9-0.2-1.7-0.5-2.6-0.9
		c-3.4-1.4-6.7-3.8-10-6.4c-6.6-5.3-13.4-11.5-20.9-13.2c-12.5-2.8-25.6-3.7-34.6,5.4c-6.2,6.3-4.4,16-4.6,21.9
		c0.2,1.4-2.1,3.6-2.1,3.6s-2.2,2.3-3.6,2.1C86.6,120.7,76.9,118.8,70.6,125L70.6,125z"/>
	<path id="path5989" inkscape:connector-curvature="0" sodipodi:nodetypes="ccccccccccccccc" d="M85,110.9c5.3,5.3,75,75,75,75
		l0.1,3.5l9.8,9.8l-1.2-4.2l4.1,1.1l-1.2-4.2l4.1,1.1l-9.6-9.8l-3.5-0.2c0,0-69.6-69.7-75-75l2.9-2.9l-21-12.5l12.5,21L85,110.9z"/>
	<path id="path5995" inkscape:connector-curvature="0" sodipodi:nodetypes="cccsscccccc" class="st4" d="M84.9,194.4l0.1,3.9
		c27.3,0.7,53.7,1.8,81.7,1.8c0,0,2.8-0.4,4.5-1.1c2-0.8,3.8-2.6,4.6-4.6c0.7-1.7,1.1-4.5,1.1-4.5c0-28.5-1.6-56.5-2.2-81.8
		l-3.7-0.1l2.1,87.5l-0.8,0.8L84.9,194.4z"/>
	<g id="flowRoot920" transform="scale(0.26458333)">
	</g>
</g>
<g id="Layer_3">
	<circle cx="181.6" cy="42.7" r="8.4"/>
	<circle cx="187" cy="31.4" r="8.9"/>
	<circle cx="128.7" cy="23.1" r="8.9"/>
	<circle cx="70" cy="32" r="8.9"/>
	<circle cx="75.9" cy="43.2" r="8"/>
	<circle cx="91" cy="40.7" r="7.9"/>
	<circle cx="106.1" cy="37.5" r="7.6"/>
	<circle cx="121.6" cy="36.7" r="8.3"/>
	<circle cx="137.9" cy="36.1" r="8.6"/>
	<circle cx="153.3" cy="37.9" r="8"/>
	<circle cx="166.9" cy="40.7" r="7.9"/>
	<path class="st3" d="M179.6,43.1c1.2,0,2.6-0.5,3.7-1c1-0.5,2.8-2,1.1-4.2c-1.2-1.4-1.9-1.8-3.9-1.8c-1.6,0-2.5,0.9-3,1.4
		c-0.5,0.5-1.1,1.9-1.1,2.8s0.4,1.9,0.9,2.3C177.8,43,179.6,43.1,179.6,43.1z"/>
	<path class="st3" d="M73.6,43.8c1.3,0,3-0.3,4-1c1.2-0.8,2.5-2.2,1.2-4.2c-1.1-1.6-2.2-1.4-3.5-1.3c-1.1,0.1-3.2,0.9-3.7,1.5
		S70,40.1,70,41c0,0.8,0.4,1.9,1,2.3C71.5,43.7,73.6,43.8,73.6,43.8z"/>
	<path class="st3" d="M181.5,25.7c-0.9,0.8-1.6,1.2-1.9,2.4c-0.2,0.9-0.2,2,0.2,2.6c0.4,0.6,3.2,0.9,5-0.6c1.8-1.4,2.8-2.7,2.9-3.5
		c0-0.8-0.5-2.3-1.8-2.4c0,0-1.6,0-2.5,0.4C182.4,25.1,181.5,25.7,181.5,25.7z"/>
	<path class="st3" d="M65.1,26.3c-1,0.8-1.7,1.3-1.9,2.5c-0.2,0.9-0.2,2.1,0.2,2.7c0.4,0.6,3.9,1.2,5.8-0.3c1.9-1.5,2.3-3.1,2.4-3.9
		S71,25,69.6,24.8c0,0-1.6-0.1-2.6,0.4S65.1,26.3,65.1,26.3z"/>
	<ellipse class="st3" cx="164.9" cy="37.2" rx="3.5" ry="3.3"/>
	<path class="st3" d="M155.5,34.1c0,0.9-0.5,1.5-1.1,2.2c-0.7,0.8-1.8,1.3-2.9,1.3c-2.1,0-3.5-1.4-3.5-3.4s1.6-2.7,3.6-2.7
		C153.7,31.4,155.5,32.1,155.5,34.1z"/>
	<path class="st3" d="M140.8,31.9c0,1.2-0.8,2-1.7,2.8s-2.3,1.2-3.6,1.2c-2.6,0-4.2-1.6-4.2-4c0-0.9,0.7-1.8,1.2-2.3
		c0.9-0.9,1.9-1.2,3.5-1.2C138.7,28.4,140.8,29.5,140.8,31.9z"/>
	<path class="st3" d="M124.8,33.6c0,1.2-0.8,2-1.6,2.8c-0.8,0.8-2.2,1.1-3.5,1.1c-2.6,0-4.1-1.5-4.1-3.9c0-0.9,0.7-1.7,1.2-2.2
		c0.8-0.9,1.9-1.2,3.4-1.2C122.7,30.1,124.8,31.2,124.8,33.6z"/>
	<path class="st3" d="M94.2,38c0,1.2-0.8,2-1.7,2.8c-0.9,0.8-2.3,1.2-3.6,1.2c-2.6,0-4.2-1.6-4.2-4c0-0.9,0.7-1.8,1.2-2.3
		c0.9-0.9,1.9-1.2,3.5-1.2C92.1,34.5,94.2,35.6,94.2,38z"/>
	<path class="st3" d="M109,34.2c0,0.9-1.3,1.9-2.7,2.9c-1,0.7-2.2,1.8-3.5,1.8c-1.1,0-2.8-1.3-2.8-3.8c0-0.9,0.7-1.8,1.2-2.4
		c0.9-0.9,2-1.2,3.7-1.2C107.7,31.4,109,33.2,109,34.2z"/>
	<path class="st3" d="M132.5,20.1c0,2.8-2.5,4.7-6,4.7c-1.9,0-3.4,0-4.2-0.7c-0.7-0.6-0.9-1.7-0.9-3c0-1.3,0.9-2.4,1.9-3.3
		c1.2-1,2.4-1.6,3.6-1.8c1.1-0.1,2.8,0.1,3.7,0.7C131.8,17.4,132.5,18.2,132.5,20.1z"/>
	<path id="path14271" inkscape:connector-curvature="0" class="st3" d="M83.9,46.8c0,1.1-0.9,2.1-2,2.1s-2-0.9-2-2.1
		c0-1.1,0.9-2.1,2-2.1c0,0,0,0,0,0C83,44.7,83.9,45.7,83.9,46.8L83.9,46.8z"/>
	<path id="path14278" inkscape:connector-curvature="0" class="st3" d="M98.1,44.2c0,1.1-0.9,2.1-2,2.1c-1.1,0-2-0.9-2-2.1
		c0-1.1,0.9-2.1,2-2.1c0,0,0,0,0,0C97.2,42.2,98.1,43.1,98.1,44.2L98.1,44.2z"/>
	<path id="path14285" inkscape:connector-curvature="0" class="st3" d="M113.8,42.1c0,1.1-0.9,2.1-2,2.1s-2-0.9-2-2.1
		c0-1.1,0.9-2.1,2-2.1c0,0,0,0,0,0C112.9,40.1,113.8,41,113.8,42.1L113.8,42.1z"/>
	<path id="path14292" inkscape:connector-curvature="0" class="st3" d="M131.1,40.9c0,1.1-0.9,2.1-2,2.1c-1.1,0-2-0.9-2-2.1
		c0-1.1,0.9-2.1,2-2.1c0,0,0,0,0,0C130.2,38.9,131.1,39.8,131.1,40.9L131.1,40.9z"/>
	<path id="path14299" inkscape:connector-curvature="0" class="st3" d="M147.6,42c0,1.1-0.9,2.1-2,2.1s-2-0.9-2-2.1
		c0-1.1,0.9-2.1,2-2.1c0,0,0,0,0,0C146.7,39.9,147.6,40.8,147.6,42L147.6,42z"/>
	<path id="path14306" inkscape:connector-curvature="0" class="st3" d="M163.3,44.2c0,1.1-0.9,2.1-2,2.1c-1.1,0-2-0.9-2-2.1
		c0-1.1,0.9-2.1,2-2.1c0,0,0,0,0,0C162.4,42.1,163.3,43,163.3,44.2L163.3,44.2z"/>
	<path id="path14313" inkscape:connector-curvature="0" class="st3" d="M178.2,46.8c0,1.1-0.9,2.1-2,2.1s-2-0.9-2-2.1
		c0-1.1,0.9-2.1,2-2.1c0,0,0,0,0,0C177.3,44.7,178.2,45.7,178.2,46.8L178.2,46.8z"/>
	
		<path id="path5948_00000074405686693499901960000002509796189884235171_" inkscape:connector-curvature="0" sodipodi:nodetypes="ccccccscsccc" class="st5" d="
		M184.4,51.6c-1.3-0.2-9.2-1.6-20.5-3.1c-12.3-1.7-26.9-3.4-36.7-3.4c-9.5,0-23.6,1.7-35.5,3.4c-10.7,1.5-17.8,2.8-19.4,3.1
		c0.7,0.8,0.1,0.1,0.1,1.1c1-0.2,9-1.6,20-3.1c11.7-1.7,25.8-3.3,34.7-3.4c9.1,0,23.7,1.7,35.9,3.3c11.7,1.6,20.4,3.1,21.2,3.2
		C184.3,51.7,183.7,52.4,184.4,51.6L184.4,51.6z"/>
</g>
</svg>
