<svg xmlns="http://www.w3.org/2000/svg" viewBox="0 0 162.7 178.7" xml:space="preserve">
  <g>
    <path d="M160.9 1.7h-2.8L1.9 2.1l-.1 140.8c0 14.1 11.4 25.5 25.5 25.5H73l7.9 8.5 7.9-8.5h45.7c14.1 0 25.4-11.4 25.5-25.5l.9-141.2zm-5.6 5.6-.9 135.6c-.1 11.1-8.8 19.9-19.9 19.9H86.4l-5.5 5.9-5.5-5.9H27.3c-11.1 0-19.9-8.8-19.9-19.9L7.5 7.7l147.8-.4z"/>
    <path d="M160.9 1.7h-2.8L1.9 2.1l-.1 140.8c0 14.1 11.4 25.5 25.5 25.5H73l7.9 8.5 7.9-8.5h45.7c14.1 0 25.4-11.4 25.5-25.5l.9-141.2zm-5.6 5.6-.9 135.6c-.1 11.1-8.8 19.9-19.9 19.9H86.4l-5.5 5.9-5.5-5.9H27.3c-11.1 0-19.9-8.8-19.9-19.9L7.5 7.7l147.8-.4z"/>
    <path d="M23.9 59.4c-9.1 9-8.2 22.1-5.4 34.6 1.7 7.5 7.9 14.2 13.2 20.9 2.6 3.3 5 6.6 6.4 10 .4.8.6 1.7.9 2.6.1.4.2.9.3 1.3.1.4.1.9.2 1.3.1.9.1 1.8 0 2.6-.1.9-.3 1.8-.6 2.7-1 2.9-8.2.6-9.2 3.5-1.3 4.1 1.8 10.2 5.9 11.4 2.5.7 5.6-1.8 6.7-4.1 8.8-17.6-15.6-49.1-15.5-63.5 0-11.5 14.7-12.2 21.8-18.7 2.1-1.9 6.1-6 6.1-6s4-4 6-6.1c6.5-7.1 7.1-21.8 18.7-21.9 14.3-.1 45.8 24.4 63.5 15.5 2.4-1.2 4.8-4.2 4.1-6.7-1.1-4.1-7.3-7.2-11.4-5.9-2.9.9-.6 8.2-3.5 9.2-.9.3-2.2.4-3.1.5-.9.1-1.4.3-2.2.2-.4 0-1-.1-1.5-.2-.4-.1-.7-.2-1.1-.3-.9-.2-1.7-.5-2.6-.9-3.4-1.4-6.7-3.8-10-6.4-6.6-5.3-13.4-11.5-20.9-13.2-12.5-2.8-25.6-3.7-34.6 5.4-6.2 6.3-4.4 16-4.6 21.9.2 1.4-2.1 3.6-2.1 3.6s-2.2 2.3-3.6 2.1c-5.9.3-15.6-1.6-21.9 4.6z"/>
    <path d="m38.3 45.3 75 75 .1 3.5 9.8 9.8-1.2-4.2 4.1 1.1-1.2-4.2 4.1 1.1-9.6-9.8-3.5-.2s-69.6-69.7-75-75l2.9-2.9-21-12.5 12.5 21 3-2.7z"/>
    <path stroke="#000" stroke-width=".072" stroke-miterlimit="15.145" d="m40.4 128.8.1 3.9c27.3.7 51.5 1.8 79.5 1.8 0 0 2.8-.4 4.5-1.1 2-.8 3.8-2.6 4.6-4.6.7-1.7 1.1-4.5 1.1-4.5 0-28.5-1.6-55.5-2.2-80.8l-3.7-.1 2.1 86.5-.8.8-85.2-1.9z"/>
  </g>
</svg>