<?xml version="1.0" encoding="utf-8"?>
<svg version="1.1" id="Layer_1" xmlns="http://www.w3.org/2000/svg" xmlns:xlink="http://www.w3.org/1999/xlink" x="0px" y="0px"
	 viewBox="0 0 401 401" enable-background="new 0 0 401 401" xml:space="preserve">
<g>
	<path fill="#FFD74E" stroke="#000000" stroke-miterlimit="15.145" d="M27.3,123.5C0.1,150.4,2.7,189.6,11.1,227
		c5.1,22.4,23.6,42.5,39.5,62.5c7.8,9.9,14.9,19.7,19.1,29.9c1.2,2.4,1.8,5.1,2.7,7.8c0.3,1.2,0.6,2.7,0.9,3.9
		c0.3,1.2,0.3,2.7,0.6,3.9c0.3,2.7,0.3,5.4,0,7.8c-0.3,2.7-0.9,5.4-1.8,8.1c-3,8.7-24.5,1.8-27.5,10.5c-3.9,12.3,5.4,30.5,17.6,34.1
		c7.5,2.1,16.7-5.4,20-12.3c26.3-52.6-46.6-146.8-46.3-189.8c0-34.4,43.9-36.5,65.2-55.9c6.3-5.7,18.2-17.9,18.2-17.9
		s12-12,17.9-18.2c19.4-21.2,21.2-65.2,55.9-65.5C235.9,35.3,330.1,108.6,383,82c7.2-3.6,14.4-12.6,12.3-20
		c-3.3-12.3-21.8-21.5-34.1-17.6c-8.7,2.7-1.8,24.5-10.5,27.5c-2.7,0.9-6.6,1.2-9.3,1.5c-2.7,0.3-4.2,0.9-6.6,0.6
		c-1.2,0-3-0.3-4.5-0.6c-1.2-0.3-2.1-0.6-3.3-0.9c-2.7-0.6-5.1-1.5-7.8-2.7c-10.2-4.2-20-11.4-29.9-19.1
		c-19.7-15.8-40.1-34.4-62.5-39.5c-37.4-8.4-76.5-11.1-103.4,16.1c-18.5,18.8-13.2,47.8-13.8,65.5c0.6,4.2-6.3,10.8-6.3,10.8
		s-6.6,6.9-10.8,6.3C75.1,110.7,46.1,105,27.3,123.5L27.3,123.5z"/>
	<path fill="#FFFFFF" stroke="#000000" stroke-miterlimit="15.145" d="M275.5,285.8l0.4,15.4l35.7,35.7l-0.8-14.3l11.4,3l-2.4-11.3
		l13,0l-35-35.7l-15.4-0.9"/>
	<path fill="#FFD74E" stroke="#000000" stroke-miterlimit="15.145" d="M70.3,81.4L70.3,81.4l224.2,224.2l34.4,35.6l8.7-9.3l-35.3-35
		c0,0-208.1-208.4-224.2-224.2"/>
	<path fill="#FFFFFF" stroke="#000000" stroke-miterlimit="15.145" d="M86.8,64L24,26.7l37.4,62.8L86.8,64z"/>
	<path fill="#FFFFFF" stroke="#000000" stroke-miterlimit="15.145" d="M73.5,331l-0.3,2c-0.4,2.5-0.3,5.1,0.2,7.6l0.4,2.1
		c81.6,2.1,157,5.4,240.7,5.4c0,0,8.4-1.2,13.5-3.3c6-2.4,11.4-7.8,13.8-13.8c2.1-5.1,3.3-13.5,3.3-13.5c0-85.2-4.8-168.7-6.6-244.3
		l-1.8-0.6c-2.4-0.8-5-1-7.4-0.5l-1.8,0.4l6.3,261.8l-2.4,2.4L73.5,331z"/>
</g>
</svg>
