<?xml version="1.0" encoding="utf-8"?>
<svg version="1.1" id="Layer_1" xmlns="http://www.w3.org/2000/svg" xmlns:xlink="http://www.w3.org/1999/xlink" x="0px" y="0px"
	 viewBox="0 0 231.2 231.2" enable-background="new 0 0 231.2 231.2" xml:space="preserve">
<g>
	<path d="M171.8,42.9c-0.7-0.2-9.5-2.2-21.2-4.5c-12.2-2.4-26.8-4.7-35.9-4.7c-8.9,0-22.9,2.4-34.7,4.7c-11,2.2-19,4.2-20,4.4v0.6
		c0.2,0.6,1,1.1,1,1.8c-0.1,0.9-1.4,1.3-1.6,2.2c-0.4,1.4-0.3,3,0.3,4.3c1.2,2.7,6,6.3,6,6.3l18-0.3c0,0,23.2-5.4,31.5-5.4
		c8.8,0,32.9,5.4,32.9,5.4l18,0.3c0,0,4.9-3.6,6-6.3c0.6-1.3,0.7-2.9,0.3-4.3c-0.3-0.9-1.6-1.3-1.6-2.2c0-0.7,0.8-1.1,1-1.8
		C171.9,43.2,171.8,43.1,171.8,42.9z"/>
	<path fill="#FFFFFF" d="M95.4,48.7c0.2-1.4,4.8-3,4.8-5.2c0-2.3-5.2-4.7-5.1-5.3c0-0.3,3.8-2,5.4-1.1c1.3,0.7,0.6,3.3,1.9,4
		c1,0.6,2.7,0.6,3.5-0.2c1.1-1.1-0.1-4.3,0.3-4.5c0.3-0.1,5.2-1.6,6.2,0.3c1.1,2.1-4.1,3.8-3.7,6.2c0.4,2.6,7.4,3.2,5.8,5.3
		c-1.4,1.8-6,2.1-7.9,1c-1.4-0.8,1.1-3.8-0.2-4.7c-1-0.7-2.6,0.2-3.3,1c-1.1,1.2,0.1,4-0.1,4.9C102.6,51.5,95,50.4,95.4,48.7
		L95.4,48.7z M71.9,51.8c0.2-1.4,4.8-3,4.8-5.2c0-2.3-5.2-4.7-5.1-5.3c0-0.3,3.8-2,5.4-1.1c1.3,0.7,0.6,3.3,1.9,4
		c1,0.6,2.7,0.6,3.5-0.2c1.1-1.1-0.1-4.3,0.3-4.5c0.3-0.1,5.2-1.6,6.2,0.3c1.1,2.1-4.1,3.8-3.7,6.2c0.4,2.6,7.4,3.2,5.8,5.3
		c-1.4,1.8-6,2.1-7.9,1c-1.4-0.8,1.1-3.8-0.2-4.7c-1-0.7-2.6,0.2-3.3,1c-1.1,1.2,0.1,4-0.1,4.9C79.1,54.6,71.5,53.5,71.9,51.8
		L71.9,51.8z M137.1,48.6c-0.2-1.4-4.8-3-4.8-5.2c0-2.3,5.2-4.7,5.1-5.3c0-0.3-3.8-2-5.4-1.1c-1.3,0.7-0.6,3.3-1.9,4
		c-1,0.6-2.7,0.6-3.5-0.2c-1.1-1.1,0.1-4.3-0.3-4.5c-0.3-0.1-5.2-1.6-6.2,0.3c-1.1,2.1,4.1,3.8,3.7,6.2c-0.4,2.6-7.4,3.2-5.8,5.3
		c1.4,1.8,6,2.1,7.9,1c1.4-0.8-1.1-3.8,0.2-4.7c1-0.7,2.6,0.2,3.3,1c1.1,1.2-0.1,4,0.1,4.9C129.9,51.4,137.5,50.3,137.1,48.6
		L137.1,48.6z M160.6,51.7c-0.2-1.4-4.8-3-4.8-5.2c0-2.3,5.2-4.7,5.1-5.3c0-0.3-3.8-2-5.4-1.1c-1.3,0.7-0.6,3.3-1.9,4
		c-1,0.6-2.7,0.6-3.5-0.2c-1.1-1.1,0.1-4.3-0.3-4.5c-0.3-0.1-5.2-1.6-6.2,0.3c-1.1,2.1,4.1,3.8,3.7,6.2c-0.4,2.6-7.4,3.2-5.8,5.3
		c1.4,1.8,6,2.1,7.9,1c1.4-0.8-1.1-3.8,0.2-4.7c1-0.7,2.6,0.2,3.3,1c1.1,1.2-0.1,4,0.1,4.9C153.4,54.5,161,53.4,160.6,51.7
		L160.6,51.7z"/>
	<path d="M195.1,54.9h-2.8L36.2,55.3l-0.1,140.8c0,14.1,11.4,25.5,25.5,25.5h45.7l7.9,8.5l7.9-8.5h45.7c14.1,0,25.4-11.4,25.5-25.5
		C194.3,196.1,195.1,54.9,195.1,54.9z M189.5,60.5l-0.9,135.6c-0.1,11.1-8.8,19.9-19.9,19.9h-48.1l-5.5,5.9l-5.5-5.9H61.5
		c-11.1,0-19.9-8.8-19.9-19.9l0.1-135.3C41.7,60.8,189.5,60.5,189.5,60.5z"/>
	<path d="M195.1,54.9h-2.8L36.2,55.3l-0.1,140.8c0,14.1,11.4,25.5,25.5,25.5h45.7l7.9,8.5l7.9-8.5h45.7c14.1,0,25.4-11.4,25.5-25.5
		C194.3,196.1,195.1,54.9,195.1,54.9z M189.5,60.5l-0.9,135.6c-0.1,11.1-8.8,19.9-19.9,19.9h-48.1l-5.5,5.9l-5.5-5.9H61.5
		c-11.1,0-19.9-8.8-19.9-19.9l0.1-135.3C41.7,60.8,189.5,60.5,189.5,60.5z"/>
	<path fill="#FFFFFF" d="M70.5,47.5c0,1.1-0.9,2.1-2,2.1s-2-0.9-2-2.1c0-1.1,0.9-2.1,2-2.1S70.5,46.4,70.5,47.5z M94.2,44.1
		c0,1.1-0.9,2.1-2,2.1s-2-0.9-2-2.1c0-1.1,0.9-2.1,2-2.1C93.2,42,94.2,43,94.2,44.1z M117.8,40.7c0,1.1-0.9,2.1-2,2.1s-2-0.9-2-2.1
		c0-1.1,0.9-2.1,2-2.1S117.8,39.6,117.8,40.7z M141.4,44.1c0,1.1-0.9,2.1-2,2.1s-2-0.9-2-2.1c0-1.1,0.9-2.1,2-2.1
		S141.4,43,141.4,44.1z M165,47.5c0,1.1-0.9,2.1-2,2.1s-2-0.9-2-2.1s0.9-2.1,2-2.1S165,46.4,165,47.5z"/>
	<path d="M58.2,112.6c-9.1,9-8.2,22.1-5.4,34.6c1.7,7.5,7.9,14.2,13.2,20.9c2.6,3.3,5,6.6,6.4,10c0.4,0.8,0.6,1.7,0.9,2.6
		c0.1,0.4,0.2,0.9,0.3,1.3c0.1,0.4,0.1,0.9,0.2,1.3c0.1,0.9,0.1,1.8,0,2.6c-0.1,0.9-0.3,1.8-0.6,2.7c-1,2.9-8.2,0.6-9.2,3.5
		c-1.3,4.1,1.8,10.2,5.9,11.4c2.5,0.7,5.6-1.8,6.7-4.1c8.8-17.6-15.6-49.1-15.5-63.5c0.1-11.5,14.8-12.2,21.9-18.7
		c2.1-1.9,6.1-6,6.1-6s4-4,6-6.1c6.5-7.1,7.1-21.8,18.7-21.9c14.3-0.1,45.8,24.4,63.5,15.5c2.4-1.2,4.8-4.2,4.1-6.7
		c-1.1-4.1-7.3-7.2-11.4-5.9c-2.9,0.9-0.6,8.2-3.5,9.2c-0.9,0.3-2.2,0.4-3.1,0.5c-0.9,0.1-1.4,0.3-2.2,0.2c-0.4,0-1-0.1-1.5-0.2
		c-0.4-0.1-0.7-0.2-1.1-0.3c-0.9-0.2-1.7-0.5-2.6-0.9c-3.4-1.4-6.7-3.8-10-6.4c-6.6-5.3-13.4-11.5-20.9-13.2
		c-12.5-2.8-25.6-3.7-34.6,5.4c-6.2,6.3-4.4,16-4.6,21.9c0.2,1.4-2.1,3.6-2.1,3.6s-2.2,2.3-3.6,2.1
		C74.2,108.3,64.5,106.4,58.2,112.6z"/>
	<path d="M72.6,98.5l75,75l0.1,3.5l9.8,9.8l-1.2-4.2l4.1,1.1l-1.2-4.2l4.1,1.1l-9.6-9.8l-3.5-0.2c0,0-69.6-69.7-75-75l2.9-2.9
		l-21-12.5l12.5,21L72.6,98.5L72.6,98.5z"/>
	<path stroke="#000000" stroke-width="7.200000e-02" stroke-miterlimit="15.145" d="M74.7,182l0.1,3.9c27.3,0.7,51.5,1.8,79.5,1.8
		c0,0,2.8-0.4,4.5-1.1c2-0.8,3.8-2.6,4.6-4.6c0.7-1.7,1.1-4.5,1.1-4.5c0-28.5-1.6-55.5-2.2-80.8l-3.7-0.1l2.1,86.5l-0.8,0.8
		L74.7,182L74.7,182z"/>
	<circle cx="169.2" cy="30.3" r="8.4"/>
	<circle cx="174.6" cy="19" r="8.9"/>
	<circle cx="116.3" cy="10.7" r="8.9"/>
	<circle cx="57.6" cy="19.6" r="8.9"/>
	<circle cx="63.5" cy="30.8" r="8"/>
	<circle cx="78.6" cy="28.3" r="7.9"/>
	<circle cx="93.7" cy="25.1" r="7.6"/>
	<circle cx="109.2" cy="24.3" r="8.3"/>
	<circle cx="125.5" cy="23.7" r="8.6"/>
	<circle cx="140.9" cy="25.5" r="8"/>
	<circle cx="154.5" cy="28.3" r="7.9"/>
	<path d="M115.9,26.8l-59.4,7.8c0,0,1.2,1.1,2.2,1.9c0.4,0.4,0.8,1.6,1.2,2.1c0,0,0.1,4.8,0.2,4.9c1.6-0.4,7.7-2.4,18.5-4.5
		c11.8-2.4,26-4.8,35.5-4.8c9.8,0,24.4,2.4,36.7,4.8c11.4,2.2,19.6,4,21,4.3c0-0.1,0.3-4.5,0.3-4.6c0.3-0.5,0.8-1.2,1.3-1.6
		c1-0.8,2.1-2.4,2.1-2.4L115.9,26.8L115.9,26.8z"/>
	<path fill="#646464" fill-opacity="0.941" d="M171.9,40c-1.3-0.3-9.1-2-20.5-4.1c-12.3-2.2-26.9-4.5-36.7-4.5
		c-9.5,0-23.6,2.3-35.5,4.5c-10.7,2-17.8,3.7-19.3,4.1c0,0.9,0,1.1,0.1,2.2c1-0.2,9-2.2,20.1-4.3c11.7-2.2,25.8-4.4,34.7-4.4
		c9.1,0,23.7,2.2,35.9,4.4c11.7,2.1,20.5,4.3,21.2,4.4c0.1-1.1,0.1-1.3,0.1-2.1l0-0.2L171.9,40z"/>
	<path fill="#FFFFFF" d="M167.2,30.7c1.2,0,2.6-0.5,3.7-1c1-0.5,2.8-2,1.1-4.2c-1.2-1.4-1.9-1.8-3.9-1.8c-1.6,0-2.5,0.9-3,1.4
		S164,27,164,27.9s0.4,1.9,0.9,2.3S167.2,30.7,167.2,30.7z M61.2,31.4c1.3,0,3-0.3,4-1c1.2-0.8,2.5-2.2,1.2-4.2
		c-1.1-1.6-2.2-1.4-3.5-1.3c-1.1,0.1-3.2,0.9-3.7,1.5s-1.5,1.3-1.5,2.2s0.4,1.9,1,2.3S61.2,31.4,61.2,31.4z M169.1,13.3
		c-0.9,0.8-1.6,1.2-1.9,2.4c-0.2,0.9-0.2,2,0.2,2.6s3.2,0.9,5-0.6c1.8-1.4,2.8-2.7,2.9-3.5c0-0.8-0.5-2.3-1.8-2.4c0,0-1.6,0-2.5,0.4
		C170,12.7,169.1,13.3,169.1,13.3z M52.7,13.9c-1,0.8-1.7,1.3-1.9,2.5c-0.2,0.9-0.2,2.1,0.2,2.7s3.9,1.2,5.8-0.3s2.3-3.1,2.4-3.9
		c0-0.8-0.5-2.3-1.9-2.5c0,0-1.6-0.1-2.6,0.4C53.6,13.3,52.7,13.9,52.7,13.9z"/>
	<ellipse fill="#FFFFFF" cx="152.5" cy="24.8" rx="3.5" ry="3.3"/>
	<path fill="#FFFFFF" d="M143.1,21.7c0,0.9-0.5,1.5-1.1,2.2c-0.7,0.8-1.8,1.3-2.9,1.3c-2.1,0-3.5-1.4-3.5-3.4s1.6-2.7,3.6-2.7
		C141.3,19,143.1,19.7,143.1,21.7z M128.4,19.5c0,1.2-0.8,2-1.7,2.8c-0.9,0.8-2.3,1.2-3.6,1.2c-2.6,0-4.2-1.6-4.2-4
		c0-0.9,0.7-1.8,1.2-2.3c0.9-0.9,1.9-1.2,3.5-1.2C126.3,16,128.4,17.1,128.4,19.5z M112.4,21.2c0,1.2-0.8,2-1.6,2.8
		c-0.8,0.8-2.2,1.1-3.5,1.1c-2.6,0-4.1-1.5-4.1-3.9c0-0.9,0.7-1.7,1.2-2.2c0.8-0.9,1.9-1.2,3.4-1.2
		C110.3,17.8,112.4,18.8,112.4,21.2z M81.8,25.6c0,1.2-0.8,2-1.7,2.8c-0.9,0.8-2.3,1.2-3.6,1.2c-2.6,0-4.2-1.6-4.2-4
		c0-0.9,0.7-1.8,1.2-2.3c0.9-0.9,1.9-1.2,3.5-1.2C79.7,22.1,81.8,23.2,81.8,25.6z M96.6,21.8c0,0.9-1.3,1.9-2.7,2.9
		c-1,0.7-2.2,1.8-3.5,1.8c-1.1,0-2.8-1.3-2.8-3.8c0-0.9,0.7-1.8,1.2-2.4c0.9-0.9,2-1.2,3.7-1.2C95.3,19,96.6,20.8,96.6,21.8z
		 M120.1,7.7c0,2.8-2.5,4.7-6,4.7c-1.9,0-3.4,0-4.2-0.7c-0.7-0.6-0.9-1.7-0.9-3s0.9-2.4,1.9-3.3c1.2-1,2.4-1.6,3.6-1.8
		c1.1-0.1,2.8,0.1,3.7,0.7C119.4,5,120.1,5.8,120.1,7.7z"/>
	<path fill="#FFFFFF" d="M73.6,33.5c0,1.1-0.9,2.1-2,2.1s-2-0.9-2-2.1c0-1.1,0.9-2.1,2-2.1S73.6,32.3,73.6,33.5z M88.6,30.3
		c0,1.1-0.9,2.1-2,2.1s-2-0.9-2-2.1c0-1.1,0.9-2.1,2-2.1C87.7,28.3,88.6,29.2,88.6,30.3z M103.3,28.5c0,1.1-0.9,2.1-2,2.1
		s-2-0.9-2-2.1c0-1.1,0.9-2.1,2-2.1C102.4,26.5,103.3,27.4,103.3,28.5z M118.7,28.5c0,1.1-0.9,2.1-2,2.1s-2-0.9-2-2.1
		c0-1.1,0.9-2.1,2-2.1C117.8,26.5,118.7,27.4,118.7,28.5z M135.3,29.6c0,1.1-0.9,2.1-2,2.1s-2-0.9-2-2.1c0-1.1,0.9-2.1,2-2.1
		C134.3,27.5,135.3,28.5,135.3,29.6z M151,31.8c0,1.1-0.9,2.1-2,2.1s-2-0.9-2-2.1c0-1.1,0.9-2.1,2-2.1C150,29.7,151,30.6,151,31.8z
		 M165.8,34.4c0,1.1-0.9,2.1-2,2.1s-2-0.9-2-2.1c0-1.1,0.9-2.1,2-2.1S165.8,33.3,165.8,34.4z"/>
</g>
</svg>
